<?xml version="1.0" encoding="utf-8"?>
<!-- Generator: Adobe Illustrator 22.1.0, SVG Export Plug-In . SVG Version: 6.00 Build 0)  -->
<svg version="1.1" id="Capa_1" xmlns="http://www.w3.org/2000/svg" xmlns:xlink="http://www.w3.org/1999/xlink" x="0px" y="0px"
	 viewBox="0 0 506 499.3" style="enable-background:new 0 0 506 499.3;" xml:space="preserve">
<style type="text/css">
	.st0{fill:url(#SVGID_1_);}
	.st1{fill:#FFFFFF;}
	.st2{fill:none;stroke:#000000;stroke-width:7;stroke-miterlimit:10;}
	.st3{stroke:#000000;stroke-width:2;stroke-miterlimit:10;}
	.st4{font-family:'MyriadPro-Regular';}
	.st5{font-size:87.0991px;}
</style>
<linearGradient id="SVGID_1_" gradientUnits="userSpaceOnUse" x1="-55.1336" y1="187.459" x2="761.8664" y2="317.459">
	<stop  offset="0" style="stop-color:#F39A53"/>
	<stop  offset="0.1256" style="stop-color:#F39152"/>
	<stop  offset="0.3318" style="stop-color:#F17851"/>
	<stop  offset="0.5932" style="stop-color:#F0504E"/>
	<stop  offset="0.8965" style="stop-color:#ED194A"/>
	<stop  offset="1" style="stop-color:#EC0448"/>
</linearGradient>
<path class="st0" d="M460.6,3.8h-178L22.1,264.3C6,280.5,6,306.7,22.1,322.8l160.8,160.8c16.2,16.2,42.4,16.2,58.5,0L502,223.1v-178
	C502,22.3,483.5,3.8,460.6,3.8z"/>
<circle class="st1" cx="412.1" cy="93.9" r="36"/>
<path class="st1" d="M398,243.1L235.6,405.5c-13.5,13.5-35.5,13.5-49,0l-88.3-88.3c-13.5-13.5-13.5-35.5,0-49l162.3-162.3
	c13.5-13.5,35.5-13.5,49,0l88.3,88.3C411.5,207.7,411.5,229.6,398,243.1z"/>
<path d="M167.8,126.8c2.3,0,4.4-0.9,6-2.5c1.6-1.6,2.5-3.8,2.5-6c0-2.2-0.9-4.4-2.5-6c-1.6-1.6-3.8-2.5-6-2.5c-2.2,0-4.4,0.9-6,2.5
	c-1.6,1.6-2.5,3.8-2.5,6c0,2.3,0.9,4.4,2.5,6C163.3,125.9,165.5,126.8,167.8,126.8z"/>
<path d="M306.6,196.2c-1.9,0-3.8,0.8-5.2,2.1s-2.1,3.2-2.1,5.2c0,1.9,0.8,3.8,2.1,5.2c1.4,1.4,3.3,2.1,5.2,2.1s3.8-0.8,5.2-2.1
	c1.4-1.4,2.1-3.3,2.1-5.2c0-1.9-0.8-3.8-2.1-5.2C310.4,197,308.5,196.2,306.6,196.2z"/>
<path class="st2" d="M185.7,100.8l42.9-42.9l54.1-54.1h178c0,0,12.7,2,19.7,5s8.3,6,8.3,6s13.9,15.1,13.4,30.5s0,178,0,178
	l-268.9,267c0,0-11.1,6.3-23.5,5.7c-12.3-0.7-24.7-10-24.7-10L23.9,324.6c0,0-13.9-12.9-13.9-29.8c0,0-0.4-4.8,0.8-9.2
	c1.1-4.4,3.2-10.6,5.4-13.8s132.3-134,132.3-134"/>
<circle class="st2" cx="412.1" cy="93.9" r="36"/>
<path class="st2" d="M286.7,96.1c21.8,0,41.9,27.6,41.9,27.6l73.7,74.1c0,0,7.4,12.1,7.4,23.1s-10.1,22.7-10.1,22.7L237.2,405.9
	c0,0-8.3,10.1-24.8,10.1s-26.2-12.2-26.2-12.2l-89.3-89.8c0,0-8.1-10.5-7.1-21.1s3.7-15.5,3.7-15.5l2.7-4.5L264.7,104
	c0,0,5.8-4.9,11.3-6.2C281.5,96.5,286.7,96.1,286.7,96.1z"/>
<path d="M376.3,263.8L326.1,213c0,0-7.3-4.8-9.4,0.3c-2.1,4.8,1.7,8.2,1.7,8.2l51,51L376.3,263.8z"/>
<text transform="matrix(0.7071 -0.7071 0.7071 0.7071 187.8976 358.9815)" class="st3 st4 st5">SMO</text>
</svg>
